<svg width="500" height="457" xmlns="http://www.w3.org/2000/svg"><g fill="#F49709" fill-rule="evenodd"><path d="M250 0c-51 0-86 100-87 224v4c0 126 36 229 87 229s87-103 87-229v-9C335 97 300 0 250 0zm0 22c33 0 65 92 65 206s-32 207-65 207c-32 0-64-90-65-202v-5c0-114 32-206 65-206z" fill-rule="nonzero"/><path d="M448 114c-26-44-130-24-238 37l-3 2C97 216 27 298 52 342c26 45 132 25 241-38l8-5c105-62 172-142 147-185zm-19 11c16 29-47 103-146 160S88 360 71 332c-16-29 46-101 142-158l4-2c99-57 195-76 212-47z" fill-rule="nonzero"/><path d="M448 342c25-44-45-126-155-189l-7-5C179 89 77 71 52 114c-25 44 44 125 151 187l4 3c109 63 215 83 241 38zm-19-10c-16 28-110 10-208-45l-4-2C118 228 55 154 71 125c17-29 113-10 212 47s162 131 146 160z" fill-rule="nonzero"/><circle cx="250" cy="228.3" r="21.7"/></g></svg>